# Blender v3.2.0 OBJ File: 'Grass.blend'
# www.blender.org
mtllib Grass.mtl
o Plane.001
v 0.010146 1.807981 0.706193
v -0.008648 0.006427 0.484732
v 0.008955 1.818116 0.614438
v -0.009707 0.014509 0.405036
v 0.006456 1.433105 0.740190
v 0.000441 0.959418 0.731374
v -0.004430 0.490466 0.629996
v -0.008039 0.518128 0.358288
v -0.004691 1.000149 0.342345
v 0.002443 1.468132 0.429227
v 0.010490 1.881908 0.677267
v -0.009205 0.005626 0.444393
v 0.004596 1.450399 0.585023
v -0.002027 0.979106 0.536707
v -0.006218 0.504146 0.494080
v -0.007751 0.101578 0.520614
v -0.009501 0.114927 0.388970
v -0.008626 0.108337 0.454801
v 0.010371 1.825817 0.145141
v 0.011304 0.011112 0.049510
v 0.003350 1.831700 0.047576
v 0.008040 0.011357 -0.030590
v 0.071856 1.444616 0.214368
v 0.062090 0.974996 0.230817
v 0.041060 0.505606 0.167405
v 0.028771 0.510392 -0.148111
v 0.041635 0.998577 -0.177844
v 0.036844 1.472164 -0.120984
v -0.005971 1.899609 0.108152
v 0.009411 0.006527 0.009456
v 0.050404 1.458008 0.051304
v 0.046009 0.986380 0.030804
v 0.033567 0.507969 0.012590
v 0.017942 0.108799 0.080143
v 0.012149 0.109138 -0.062791
v 0.015034 0.108984 0.009239
v 0.105026 1.801111 -0.777162
v 0.002989 0.005614 -0.642592
v 0.104986 1.812083 -0.692266
v 0.001131 0.012850 -0.562979
v 0.015957 1.413366 -0.912644
v 0.012773 0.943672 -0.947474
v 0.006792 0.481900 -0.844742
v -0.001907 0.504808 -0.582532
v 0.003432 0.990079 -0.580068
v 0.027409 1.458595 -0.629146
v 0.126364 1.877569 -0.724600
v 0.002067 0.004398 -0.602100
v 0.020959 1.432743 -0.777230
v 0.013947 0.965545 -0.767619
v 0.003985 0.492226 -0.720887
v 0.003364 0.099399 -0.690594
v 0.000019 0.110357 -0.560768
v 0.001672 0.104548 -0.627515
v -0.374634 1.801692 -0.191753
v -0.140623 0.000716 -0.255190
v -0.361139 1.807609 -0.288633
v -0.126583 0.001315 -0.334116
v -0.285271 1.429774 -0.104699
v -0.243279 0.962145 -0.083034
v -0.195051 0.494157 -0.141779
v -0.139645 0.500380 -0.452609
v -0.177950 0.986932 -0.486886
v -0.250293 1.456104 -0.440152
v -0.391163 1.873382 -0.232593
v -0.133304 -0.003689 -0.294636
v -0.272556 1.442052 -0.268763
v -0.217171 0.973405 -0.281994
v -0.169285 0.497052 -0.294609
v -0.152219 0.098217 -0.225453
v -0.127123 0.099193 -0.366283
v -0.139806 0.098714 -0.295321
v 0.010576 1.871617 0.690682
v -0.008396 0.025052 0.497305
v -0.009499 0.008504 0.422089
v 0.006178 1.672793 0.524676
v 0.008748 1.650088 0.724468
v 0.003496 1.198044 0.746003
v -0.002191 0.723401 0.689296
v -0.008928 0.288172 0.375518
v -0.006779 0.758908 0.343280
v -0.001437 1.239126 0.367958
v 0.003547 1.459224 0.507184
v -0.003340 0.989501 0.439498
v -0.007126 0.511109 0.426172
v 0.010167 1.874870 0.659634
v -0.008904 0.003968 0.466821
v 0.005554 1.441711 0.662665
v -0.000775 0.969135 0.634012
v -0.005321 0.497278 0.562026
v -0.004434 0.740666 0.516117
v 0.001171 1.218102 0.557091
v 0.007672 1.670010 0.626912
v -0.007644 0.278425 0.471932
v -0.006365 0.268604 0.568351
v -0.009737 0.035278 0.396455
v -0.009070 0.029617 0.446824
v -0.008188 0.104973 0.487709
v -0.009063 0.111648 0.421887
v -0.004075 1.890284 0.122583
v 0.012836 0.030538 0.060740
v 0.008529 0.007194 -0.013014
v 0.020388 1.681612 -0.036621
v 0.043511 1.664335 0.180251
v 0.074206 1.210812 0.232863
v 0.051222 0.740082 0.207291
v 0.019699 0.280696 -0.104473
v 0.036407 0.753774 -0.172489
v 0.043216 1.240155 -0.165664
v 0.042884 1.465014 -0.033975
v 0.042725 0.992402 -0.072711
v 0.030916 0.509174 -0.067208
v -0.004387 1.891147 0.090803
v 0.010360 0.007056 0.031928
v 0.060390 1.451240 0.133701
v 0.052952 0.980611 0.131620
v 0.037061 0.506781 0.090549
v 0.039960 0.746699 0.021131
v 0.053126 1.225065 0.038496
v 0.028173 1.681605 0.076037
v 0.023996 0.280265 0.009306
v 0.028687 0.279767 0.119674
v 0.008653 0.030840 -0.042004
v 0.010710 0.030094 0.009438
v 0.016486 0.108895 0.044796
v 0.013589 0.109064 -0.026671
v 0.124628 1.867408 -0.740856
v 0.003198 0.024088 -0.656912
v 0.001546 0.007051 -0.579824
v 0.066182 1.664766 -0.663077
v 0.058236 1.636223 -0.844687
v 0.006567 1.178530 -0.948803
v 0.012028 0.711368 -0.910731
v -0.001445 0.278608 -0.573369
v 0.000113 0.746439 -0.579909
v 0.008805 1.229552 -0.598209
v 0.024048 1.445062 -0.704375
v 0.009785 0.977563 -0.674565
v 0.001328 0.498305 -0.653069
v 0.122501 1.869950 -0.711258
v 0.002587 0.002982 -0.624549
v 0.018323 1.422447 -0.846125
v 0.014456 0.954360 -0.858268
v 0.005678 0.486851 -0.784174
v 0.010590 0.727841 -0.750979
v 0.010603 1.201581 -0.778630
v 0.063646 1.657140 -0.756626
v 0.001418 0.270309 -0.672503
v 0.003986 0.263613 -0.761299
v 0.000808 0.033101 -0.556498
v 0.002001 0.027891 -0.606879
v 0.002514 0.101912 -0.659398
v 0.000842 0.107390 -0.594486
v -0.391337 1.864212 -0.217941
v -0.143829 0.020083 -0.244214
v -0.129403 -0.002924 -0.316780
v -0.308928 1.661362 -0.364736
v -0.331146 1.644925 -0.147703
v -0.259590 1.197716 -0.082300
v -0.221242 0.727816 -0.104491
v -0.130928 0.270823 -0.408178
v -0.155501 0.743181 -0.478766
v -0.207330 1.226888 -0.478613
v -0.262319 1.448912 -0.353771
v -0.198790 0.979956 -0.383884
v -0.154828 0.498675 -0.373124
v -0.384903 1.865326 -0.249056
v -0.137281 -0.003260 -0.272497
v -0.279809 1.435747 -0.186044
v -0.231454 0.967563 -0.181958
v -0.182532 0.495564 -0.217709
v -0.192884 0.734782 -0.288810
v -0.239880 1.211182 -0.276867
v -0.325618 1.661230 -0.253049
v -0.151190 0.269849 -0.296139
v -0.170329 0.268885 -0.187345
v -0.125815 0.020840 -0.345450
v -0.134801 0.019865 -0.294762
v -0.146037 0.098467 -0.260284
v -0.133490 0.098955 -0.330699
v -0.009408 0.032283 0.421343
v 0.006992 1.674188 0.577393
v -0.000107 1.228523 0.462545
v -0.005597 0.749695 0.429666
v -0.003303 0.731942 0.602675
v 0.002360 1.207982 0.651568
v 0.008256 1.663042 0.675606
v -0.008731 0.027113 0.472322
v -0.007004 0.273521 0.520141
v -0.008286 0.283305 0.423724
v 0.009659 0.030269 -0.016548
v 0.023527 1.684431 0.021686
v 0.047124 1.232531 -0.062666
v 0.037460 0.750194 -0.074979
v 0.044868 0.743347 0.114910
v 0.062619 1.217860 0.136598
v 0.034725 1.676028 0.128193
v 0.011773 0.030116 0.035379
v 0.026305 0.280022 0.064809
v 0.021811 0.280487 -0.047264
v 0.001398 0.030301 -0.581429
v 0.065451 1.663359 -0.710925
v 0.010251 1.215105 -0.689380
v 0.006199 0.736941 -0.666505
v 0.012157 0.719405 -0.831916
v 0.009132 1.189594 -0.864677
v 0.061717 1.649421 -0.800272
v 0.002606 0.025743 -0.632194
v 0.002730 0.266810 -0.717870
v 0.000015 0.274308 -0.623905
v -0.130250 0.020156 -0.320366
v -0.318760 1.663992 -0.307169
v -0.224808 1.218825 -0.377067
v -0.175039 0.738847 -0.383259
v -0.207909 0.731165 -0.196122
v -0.250939 1.204240 -0.178910
v -0.329833 1.655983 -0.200618
v -0.139354 0.019773 -0.269201
v -0.160865 0.269366 -0.241438
v -0.141164 0.270335 -0.351854
vt 0.948755 0.500000
vt 0.988207 0.500000
vt 0.988975 0.750000
vt 0.951828 0.750000
vt 1.000000 0.500000
vt 1.000000 0.750000
vt 1.000000 1.000000
vt 0.992816 1.000000
vt 0.985632 1.000000
vt 0.000000 0.500000
vt 0.125000 0.500000
vt 0.125000 0.750000
vt 0.000000 0.750000
vt 0.250000 0.500000
vt 0.250000 0.750000
vt 0.250000 1.000000
vt 0.125000 1.000000
vt 0.000000 1.000000
vt 0.375000 0.500000
vt 0.375000 0.750000
vt 0.500000 0.500000
vt 0.500000 0.750000
vt 0.500000 1.000000
vt 0.375000 1.000000
vt 0.624701 0.500000
vt 0.624751 0.750000
vt 0.747605 0.500000
vt 0.747805 0.750000
vt 0.750000 1.000000
vt 0.625000 1.000000
vt 0.500000 0.000000
vt 0.625000 0.000000
vt 0.624751 0.250000
vt 0.500000 0.250000
vt 0.750000 0.000000
vt 0.747805 0.250000
vt 0.250000 0.000000
vt 0.375000 0.000000
vt 0.375000 0.250000
vt 0.250000 0.250000
vt 0.000000 0.000000
vt 0.125000 0.000000
vt 0.125000 0.250000
vt 0.000000 0.250000
vt 0.985632 0.000000
vt 0.992816 0.000000
vt 0.988975 0.250000
vt 0.951828 0.250000
vt 1.000000 0.000000
vt 1.000000 0.250000
vt 0.867816 0.000000
vt 0.863725 0.250000
vt 0.862907 0.500000
vt 0.863725 0.750000
vt 0.867816 1.000000
vt 0.948755 0.500000
vt 0.988207 0.500000
vt 0.988975 0.750000
vt 0.951828 0.750000
vt 1.000000 0.500000
vt 1.000000 0.750000
vt 1.000000 1.000000
vt 0.992816 1.000000
vt 0.985632 1.000000
vt 0.000000 0.500000
vt 0.125000 0.500000
vt 0.125000 0.750000
vt 0.000000 0.750000
vt 0.250000 0.500000
vt 0.250000 0.750000
vt 0.250000 1.000000
vt 0.125000 1.000000
vt 0.000000 1.000000
vt 0.375000 0.500000
vt 0.375000 0.750000
vt 0.500000 0.500000
vt 0.500000 0.750000
vt 0.500000 1.000000
vt 0.375000 1.000000
vt 0.624701 0.500000
vt 0.624751 0.750000
vt 0.747605 0.500000
vt 0.747805 0.750000
vt 0.750000 1.000000
vt 0.625000 1.000000
vt 0.500000 0.000000
vt 0.625000 0.000000
vt 0.624751 0.250000
vt 0.500000 0.250000
vt 0.750000 0.000000
vt 0.747805 0.250000
vt 0.250000 0.000000
vt 0.375000 0.000000
vt 0.375000 0.250000
vt 0.250000 0.250000
vt 0.000000 0.000000
vt 0.125000 0.000000
vt 0.125000 0.250000
vt 0.000000 0.250000
vt 0.985632 0.000000
vt 0.992816 0.000000
vt 0.988975 0.250000
vt 0.951828 0.250000
vt 1.000000 0.000000
vt 1.000000 0.250000
vt 0.867816 0.000000
vt 0.863725 0.250000
vt 0.862907 0.500000
vt 0.863725 0.750000
vt 0.867816 1.000000
vt 0.948755 0.500000
vt 0.951828 0.750000
vt 0.988975 0.750000
vt 0.988207 0.500000
vt 0.985632 1.000000
vt 0.992816 1.000000
vt 1.000000 1.000000
vt 1.000000 0.750000
vt 1.000000 0.500000
vt 0.000000 0.500000
vt 0.000000 0.750000
vt 0.125000 0.750000
vt 0.125000 0.500000
vt 0.000000 1.000000
vt 0.125000 1.000000
vt 0.250000 1.000000
vt 0.250000 0.750000
vt 0.250000 0.500000
vt 0.375000 0.750000
vt 0.375000 0.500000
vt 0.375000 1.000000
vt 0.500000 1.000000
vt 0.500000 0.750000
vt 0.500000 0.500000
vt 0.624751 0.750000
vt 0.624701 0.500000
vt 0.625000 1.000000
vt 0.750000 1.000000
vt 0.747805 0.750000
vt 0.747605 0.500000
vt 0.500000 0.000000
vt 0.500000 0.250000
vt 0.624750 0.250000
vt 0.625000 0.000000
vt 0.747805 0.250000
vt 0.750000 0.000000
vt 0.250000 0.000000
vt 0.250000 0.250000
vt 0.375000 0.250000
vt 0.375000 0.000000
vt 0.000000 0.000000
vt 0.000000 0.250000
vt 0.125000 0.250000
vt 0.125000 0.000000
vt 0.985632 0.000000
vt 0.951828 0.250000
vt 0.988975 0.250000
vt 0.992816 0.000000
vt 1.000000 0.250000
vt 1.000000 0.000000
vt 0.863725 0.250000
vt 0.867816 0.000000
vt 0.862907 0.500000
vt 0.863725 0.750000
vt 0.867816 1.000000
vt 0.948755 0.500000
vt 0.988207 0.500000
vt 0.988975 0.750000
vt 0.951828 0.750000
vt 1.000000 0.500000
vt 1.000000 0.750000
vt 1.000000 1.000000
vt 0.992816 1.000000
vt 0.985632 1.000000
vt 0.000000 0.500000
vt 0.125000 0.500000
vt 0.125000 0.750000
vt 0.000000 0.750000
vt 0.250000 0.500000
vt 0.250000 0.750000
vt 0.250000 1.000000
vt 0.125000 1.000000
vt 0.000000 1.000000
vt 0.375000 0.500000
vt 0.375000 0.750000
vt 0.500000 0.500000
vt 0.500000 0.750000
vt 0.500000 1.000000
vt 0.375000 1.000000
vt 0.624701 0.500000
vt 0.624751 0.750000
vt 0.747605 0.500000
vt 0.747805 0.750000
vt 0.750000 1.000000
vt 0.625000 1.000000
vt 0.500000 0.000000
vt 0.625000 0.000000
vt 0.624751 0.250000
vt 0.500000 0.250000
vt 0.750000 0.000000
vt 0.747805 0.250000
vt 0.250000 0.000000
vt 0.375000 0.000000
vt 0.375000 0.250000
vt 0.250000 0.250000
vt 0.000000 0.000000
vt 0.125000 0.000000
vt 0.125000 0.250000
vt 0.000000 0.250000
vt 0.985632 0.000000
vt 0.992816 0.000000
vt 0.988975 0.250000
vt 0.951828 0.250000
vt 1.000000 0.000000
vt 1.000000 0.250000
vt 0.867816 0.000000
vt 0.863725 0.250000
vt 0.862907 0.500000
vt 0.863725 0.750000
vt 0.867816 1.000000
vn 0.9999 -0.0043 -0.0137
vn 0.9999 -0.0100 -0.0140
vn 0.9998 -0.0106 -0.0141
vn 0.9998 -0.0105 -0.0148
vn 0.9998 -0.0099 -0.0146
vn 0.9998 -0.0121 -0.0143
vn 0.9998 -0.0120 -0.0151
vn 0.9998 -0.0121 -0.0155
vn 0.9998 -0.0106 -0.0152
vn 0.9998 -0.0098 -0.0149
vn 0.9998 -0.0126 -0.0144
vn 0.9998 -0.0125 -0.0152
vn 0.9998 -0.0105 -0.0143
vn 0.9998 -0.0104 -0.0148
vn 0.9998 -0.0104 -0.0150
vn 0.9998 -0.0124 -0.0154
vn 0.9999 -0.0075 -0.0140
vn 0.9999 -0.0075 -0.0144
vn 0.9999 -0.0056 -0.0138
vn 0.9999 -0.0056 -0.0140
vn 0.9999 -0.0056 -0.0141
vn 0.9999 -0.0076 -0.0145
vn 0.9999 -0.0104 -0.0135
vn 0.9999 -0.0076 -0.0135
vn 0.9999 -0.0075 -0.0137
vn 0.9999 -0.0105 -0.0137
vn 0.9999 -0.0056 -0.0136
vn 0.9999 -0.0056 -0.0137
vn 0.9998 -0.0123 -0.0131
vn 0.9998 -0.0125 -0.0134
vn 0.9998 -0.0126 -0.0137
vn 0.9998 -0.0122 -0.0134
vn 0.9999 -0.0103 -0.0132
vn 0.9999 -0.0110 -0.0131
vn 0.9999 -0.0108 -0.0133
vn 0.9999 -0.0101 -0.0135
vn 0.9999 -0.0047 -0.0137
vn 0.9999 -0.0047 -0.0138
vn 0.9977 -0.0536 -0.0405
vn 0.9977 -0.0549 -0.0407
vn 0.9977 -0.0550 -0.0405
vn 0.9978 -0.0538 -0.0396
vn 0.9977 -0.0550 -0.0408
vn 0.9976 -0.0551 -0.0407
vn 0.9976 -0.0552 -0.0407
vn 0.9977 -0.0551 -0.0404
vn 0.9978 -0.0538 -0.0390
vn 0.9838 0.1646 -0.0716
vn 0.9872 0.1369 -0.0824
vn 0.9901 0.1277 -0.0588
vn 0.9864 0.1555 -0.0531
vn 0.9938 0.0630 -0.0916
vn 0.9958 0.0653 -0.0645
vn 0.9966 0.0617 -0.0541
vn 0.9918 0.1162 -0.0540
vn 0.9888 0.1430 -0.0429
vn 0.9970 -0.0052 -0.0770
vn 0.9988 0.0047 -0.0478
vn 0.9981 -0.0260 -0.0559
vn 0.9994 -0.0195 -0.0282
vn 0.9997 -0.0163 -0.0184
vn 0.9993 0.0091 -0.0369
vn 0.9988 -0.0255 -0.0429
vn 0.9994 -0.0255 -0.0225
vn 0.9986 -0.0343 -0.0397
vn 0.9989 -0.0359 -0.0290
vn 0.9990 -0.0365 -0.0243
vn 0.9996 -0.0258 -0.0149
vn 0.9947 -0.0386 -0.0951
vn 0.9969 -0.0314 -0.0726
vn 0.9975 -0.0288 -0.0639
vn 0.9959 -0.0341 -0.0843
vn 0.9978 -0.0356 -0.0561
vn 0.9981 -0.0352 -0.0509
vn 0.9901 0.0488 -0.1319
vn 0.9928 -0.0218 -0.1179
vn 0.9941 -0.0151 -0.1071
vn 0.9909 0.0588 -0.1208
vn 0.9766 0.1732 -0.1273
vn 0.9824 0.1315 -0.1325
vn 0.9831 0.1419 -0.1154
vn 0.9810 0.1712 -0.0913
vn 0.9977 -0.0535 -0.0420
vn 0.9976 -0.0549 -0.0410
vn 0.9977 -0.0549 -0.0409
vn 0.9977 -0.0536 -0.0415
vn 0.9976 -0.0550 -0.0409
vn 0.9978 -0.0472 -0.0462
vn 0.9979 -0.0474 -0.0441
vn 0.9981 -0.0472 -0.0401
vn 0.9982 -0.0478 -0.0362
vn 0.9983 -0.0478 -0.0342
vn 0.9996 0.0098 0.0254
vn 0.9996 0.0104 0.0248
vn 0.9997 0.0096 0.0229
vn 0.9997 0.0090 0.0234
vn 0.9996 0.0107 0.0246
vn 0.9997 0.0101 0.0227
vn 0.9997 0.0083 0.0223
vn 0.9997 0.0080 0.0226
vn 0.9997 0.0075 0.0229
vn 0.9610 -0.2754 0.0261
vn 0.9624 -0.2703 0.0266
vn 0.9737 -0.2278 0.0079
vn 0.9726 -0.2323 0.0077
vn 0.9655 -0.2596 0.0232
vn 0.9755 -0.2199 0.0051
vn 0.9915 -0.1300 -0.0050
vn 0.9922 -0.1243 -0.0073
vn 0.9931 -0.1166 -0.0123
vn 0.9994 -0.0312 0.0149
vn 0.9999 -0.0169 -0.0030
vn 0.9989 -0.0409 0.0211
vn 0.9984 -0.0110 0.0559
vn 0.9989 -0.0066 0.0468
vn 0.9998 0.0008 0.0196
vn 0.9983 -0.0144 0.0569
vn 0.9993 -0.0166 0.0337
vn 0.9978 -0.0130 0.0657
vn 0.9987 -0.0061 0.0501
vn 0.9989 -0.0085 0.0455
vn 0.9993 -0.0128 0.0341
vn 0.9998 0.0077 -0.0185
vn 0.9999 0.0060 -0.0082
vn 0.9998 -0.0164 0.0092
vn 0.9999 -0.0149 -0.0011
vn 0.9997 -0.0143 0.0215
vn 0.9998 -0.0156 0.0151
vn 0.9954 -0.0925 -0.0230
vn 0.9936 -0.1118 -0.0184
vn 0.9997 -0.0087 -0.0208
vn 0.9996 -0.0020 -0.0277
vn 0.9618 -0.2738 -0.0054
vn 0.9598 -0.2796 0.0223
vn 0.9726 -0.2325 -0.0030
vn 0.9776 -0.2101 -0.0122
vn 0.9996 0.0088 0.0266
vn 0.9996 0.0092 0.0261
vn 0.9997 0.0085 0.0240
vn 0.9997 0.0087 0.0245
vn 0.9997 0.0071 0.0232
vn 0.9997 0.0069 0.0234
vn 0.9996 0.0016 0.0267
vn 0.9997 0.0002 0.0249
vn 0.9996 0.0026 0.0294
vn 0.9995 0.0045 0.0317
vn 0.9995 0.0057 0.0325
vn 0.9823 0.0648 0.1756
vn 0.9825 0.0634 0.1753
vn 0.9824 0.0633 0.1755
vn 0.9822 0.0646 0.1765
vn 0.9825 0.0633 0.1753
vn 0.9825 0.0632 0.1754
vn 0.9824 0.0633 0.1757
vn 0.9821 0.0646 0.1770
vn 0.9499 0.2801 0.1386
vn 0.9588 0.2531 0.1293
vn 0.9576 0.2441 0.1531
vn 0.9496 0.2711 0.1574
vn 0.9758 0.1806 0.1229
vn 0.9717 0.1828 0.1498
vn 0.9707 0.1793 0.1601
vn 0.9596 0.2328 0.1583
vn 0.9511 0.2590 0.1681
vn 0.9838 0.1130 0.1390
vn 0.9781 0.1229 0.1677
vn 0.9828 0.0923 0.1602
vn 0.9773 0.0987 0.1874
vn 0.9751 0.1019 0.1970
vn 0.9757 0.1272 0.1783
vn 0.9805 0.0928 0.1730
vn 0.9768 0.0927 0.1930
vn 0.9808 0.0840 0.1762
vn 0.9789 0.0824 0.1868
vn 0.9781 0.0817 0.1913
vn 0.9753 0.0924 0.2004
vn 0.9894 0.0799 0.1213
vn 0.9858 0.0870 0.1436
vn 0.9843 0.0896 0.1523
vn 0.9877 0.0843 0.1320
vn 0.9836 0.0828 0.1601
vn 0.9828 0.0832 0.1652
vn 0.9826 0.1664 0.0830
vn 0.9905 0.0965 0.0984
vn 0.9887 0.1032 0.1091
vn 0.9798 0.1763 0.0939
vn 0.9540 0.2883 0.0826
vn 0.9656 0.2476 0.0794
vn 0.9614 0.2579 0.0960
vn 0.9507 0.2865 0.1186
vn 0.9826 0.0649 0.1741
vn 0.9825 0.0635 0.1751
vn 0.9825 0.0635 0.1752
vn 0.9825 0.0648 0.1746
vn 0.9825 0.0634 0.1752
vn 0.9829 0.0712 0.1699
vn 0.9825 0.0710 0.1720
vn 0.9818 0.0712 0.1759
vn 0.9812 0.0705 0.1798
vn 0.9808 0.0706 0.1817
usemtl Material.001
s 1
f 18/1/1 97/2/1 181/3/1 99/4/1
f 97/2/1 12/5/1 75/6/1 181/3/1
f 181/3/1 75/6/1 4/7/1 96/8/1
f 99/4/1 181/3/1 96/8/1 17/9/1
f 11/10/2 93/11/3 182/12/4 86/13/5
f 93/11/3 13/14/6 83/15/7 182/12/4
f 182/12/4 83/15/7 10/16/8 76/17/9
f 86/13/5 182/12/4 76/17/9 3/18/10
f 13/14/6 92/19/11 183/20/12 83/15/7
f 92/19/11 14/21/13 84/22/14 183/20/12
f 183/20/12 84/22/14 9/23/15 82/24/16
f 83/15/7 183/20/12 82/24/16 10/16/8
f 14/21/13 91/25/17 184/26/18 84/22/14
f 91/25/17 15/27/19 85/28/20 184/26/18
f 184/26/18 85/28/20 8/29/21 81/30/22
f 84/22/14 184/26/18 81/30/22 9/23/15
f 6/31/23 79/32/24 185/33/25 89/34/26
f 79/32/24 7/35/27 90/36/28 185/33/25
f 185/33/25 90/36/28 15/27/19 91/25/17
f 89/34/26 185/33/25 91/25/17 14/21/13
f 5/37/29 78/38/30 186/39/31 88/40/32
f 78/38/30 6/31/23 89/34/26 186/39/31
f 186/39/31 89/34/26 14/21/13 92/19/11
f 88/40/32 186/39/31 92/19/11 13/14/6
f 1/41/33 77/42/34 187/43/35 73/44/36
f 77/42/34 5/37/29 88/40/32 187/43/35
f 187/43/35 88/40/32 13/14/6 93/11/3
f 73/44/36 187/43/35 93/11/3 11/10/2
f 16/45/1 74/46/1 188/47/1 98/48/1
f 74/46/1 2/49/1 87/50/1 188/47/1
f 188/47/1 87/50/1 12/5/1 97/2/1
f 98/48/1 188/47/1 97/2/1 18/1/1
f 7/35/27 95/51/37 189/52/37 90/36/28
f 95/51/37 16/45/1 98/48/1 189/52/37
f 189/52/37 98/48/1 18/1/1 94/53/38
f 90/36/28 189/52/37 94/53/38 15/27/19
f 15/27/19 94/53/38 190/54/38 85/28/20
f 94/53/38 18/1/1 99/4/1 190/54/38
f 190/54/38 99/4/1 17/9/1 80/55/38
f 85/28/20 190/54/38 80/55/38 8/29/21
f 36/56/39 124/57/40 191/58/41 126/59/42
f 124/57/40 30/60/43 102/61/44 191/58/41
f 191/58/41 102/61/44 22/62/45 123/63/46
f 126/59/42 191/58/41 123/63/46 35/64/47
f 29/65/48 120/66/49 192/67/50 113/68/51
f 120/66/49 31/69/52 110/70/53 192/67/50
f 192/67/50 110/70/53 28/71/54 103/72/55
f 113/68/51 192/67/50 103/72/55 21/73/56
f 31/69/52 119/74/57 193/75/58 110/70/53
f 119/74/57 32/76/59 111/77/60 193/75/58
f 193/75/58 111/77/60 27/78/61 109/79/62
f 110/70/53 193/75/58 109/79/62 28/71/54
f 32/76/59 118/80/63 194/81/64 111/77/60
f 118/80/63 33/82/65 112/83/66 194/81/64
f 194/81/64 112/83/66 26/84/67 108/85/68
f 111/77/60 194/81/64 108/85/68 27/78/61
f 24/86/69 106/87/70 195/88/71 116/89/72
f 106/87/70 25/90/73 117/91/74 195/88/71
f 195/88/71 117/91/74 33/82/65 118/80/63
f 116/89/72 195/88/71 118/80/63 32/76/59
f 23/92/75 105/93/76 196/94/77 115/95/78
f 105/93/76 24/86/69 116/89/72 196/94/77
f 196/94/77 116/89/72 32/76/59 119/74/57
f 115/95/78 196/94/77 119/74/57 31/69/52
f 19/96/79 104/97/80 197/98/81 100/99/82
f 104/97/80 23/92/75 115/95/78 197/98/81
f 197/98/81 115/95/78 31/69/52 120/66/49
f 100/99/82 197/98/81 120/66/49 29/65/48
f 34/100/83 101/101/84 198/102/85 125/103/86
f 101/101/84 20/104/87 114/105/87 198/102/85
f 198/102/85 114/105/87 30/60/43 124/57/40
f 125/103/86 198/102/85 124/57/40 36/56/39
f 25/90/73 122/106/88 199/107/89 117/91/74
f 122/106/88 34/100/83 125/103/86 199/107/89
f 199/107/89 125/103/86 36/56/39 121/108/90
f 117/91/74 199/107/89 121/108/90 33/82/65
f 33/82/65 121/108/90 200/109/91 112/83/66
f 121/108/90 36/56/39 126/59/42 200/109/91
f 200/109/91 126/59/42 35/64/47 107/110/92
f 112/83/66 200/109/91 107/110/92 26/84/67
f 54/111/93 153/112/94 201/113/95 151/114/96
f 153/112/94 53/115/97 150/116/98 201/113/95
f 201/113/95 150/116/98 40/117/99 129/118/100
f 151/114/96 201/113/95 129/118/100 48/119/101
f 47/120/102 140/121/103 202/122/104 147/123/105
f 140/121/103 39/124/106 130/125/107 202/122/104
f 202/122/104 130/125/107 46/126/108 137/127/109
f 147/123/105 202/122/104 137/127/109 49/128/110
f 49/128/110 137/127/109 203/129/111 146/130/112
f 137/127/109 46/126/108 136/131/113 203/129/111
f 203/129/111 136/131/113 45/132/114 138/133/115
f 146/130/112 203/129/111 138/133/115 50/134/116
f 50/134/116 138/133/115 204/135/117 145/136/118
f 138/133/115 45/132/114 135/137/119 204/135/117
f 204/135/117 135/137/119 44/138/120 139/139/121
f 145/136/118 204/135/117 139/139/121 51/140/122
f 42/141/123 143/142/124 205/143/125 133/144/126
f 143/142/124 50/134/116 145/136/118 205/143/125
f 205/143/125 145/136/118 51/140/122 144/145/127
f 133/144/126 205/143/125 144/145/127 43/146/128
f 41/147/129 142/148/130 206/149/131 132/150/132
f 142/148/130 49/128/110 146/130/112 206/149/131
f 206/149/131 146/130/112 50/134/116 143/142/124
f 132/150/132 206/149/131 143/142/124 42/141/123
f 37/151/133 127/152/134 207/153/135 131/154/136
f 127/152/134 47/120/102 147/123/105 207/153/135
f 207/153/135 147/123/105 49/128/110 142/148/130
f 131/154/136 207/153/135 142/148/130 41/147/129
f 52/155/137 152/156/138 208/157/139 128/158/140
f 152/156/138 54/111/93 151/114/96 208/157/139
f 208/157/139 151/114/96 48/119/101 141/159/141
f 128/158/140 208/157/139 141/159/141 38/160/142
f 43/146/128 144/145/127 209/161/143 149/162/144
f 144/145/127 51/140/122 148/163/145 209/161/143
f 209/161/143 148/163/145 54/111/93 152/156/138
f 149/162/144 209/161/143 152/156/138 52/155/137
f 51/140/122 139/139/121 210/164/146 148/163/145
f 139/139/121 44/138/120 134/165/147 210/164/146
f 210/164/146 134/165/147 53/115/97 153/112/94
f 148/163/145 210/164/146 153/112/94 54/111/93
f 72/166/148 178/167/149 211/168/150 180/169/151
f 178/167/149 66/170/152 156/171/152 211/168/150
f 211/168/150 156/171/152 58/172/153 177/173/154
f 180/169/151 211/168/150 177/173/154 71/174/155
f 65/175/156 174/176/157 212/177/158 167/178/159
f 174/176/157 67/179/160 164/180/161 212/177/158
f 212/177/158 164/180/161 64/181/162 157/182/163
f 167/178/159 212/177/158 157/182/163 57/183/164
f 67/179/160 173/184/165 213/185/166 164/180/161
f 173/184/165 68/186/167 165/187/168 213/185/166
f 213/185/166 165/187/168 63/188/169 163/189/170
f 164/180/161 213/185/166 163/189/170 64/181/162
f 68/186/167 172/190/171 214/191/172 165/187/168
f 172/190/171 69/192/173 166/193/174 214/191/172
f 214/191/172 166/193/174 62/194/175 162/195/176
f 165/187/168 214/191/172 162/195/176 63/188/169
f 60/196/177 160/197/178 215/198/179 170/199/180
f 160/197/178 61/200/181 171/201/182 215/198/179
f 215/198/179 171/201/182 69/192/173 172/190/171
f 170/199/180 215/198/179 172/190/171 68/186/167
f 59/202/183 159/203/184 216/204/185 169/205/186
f 159/203/184 60/196/177 170/199/180 216/204/185
f 216/204/185 170/199/180 68/186/167 173/184/165
f 169/205/186 216/204/185 173/184/165 67/179/160
f 55/206/187 158/207/188 217/208/189 154/209/190
f 158/207/188 59/202/183 169/205/186 217/208/189
f 217/208/189 169/205/186 67/179/160 174/176/157
f 154/209/190 217/208/189 174/176/157 65/175/156
f 70/210/191 155/211/192 218/212/193 179/213/194
f 155/211/192 56/214/195 168/215/195 218/212/193
f 218/212/193 168/215/195 66/170/152 178/167/149
f 179/213/194 218/212/193 178/167/149 72/166/148
f 61/200/181 176/216/196 219/217/197 171/201/182
f 176/216/196 70/210/191 179/213/194 219/217/197
f 219/217/197 179/213/194 72/166/148 175/218/198
f 171/201/182 219/217/197 175/218/198 69/192/173
f 69/192/173 175/218/198 220/219/199 166/193/174
f 175/218/198 72/166/148 180/169/151 220/219/199
f 220/219/199 180/169/151 71/174/155 161/220/200
f 166/193/174 220/219/199 161/220/200 62/194/175
